<?xml version="1.0" standalone="no"?>
<!DOCTYPE svg PUBLIC "-//W3C//DTD SVG 20010904//EN"
 "http://www.w3.org/TR/2001/REC-SVG-20010904/DTD/svg10.dtd">
<svg version="1.0" xmlns="http://www.w3.org/2000/svg"
 width="980.000000pt" height="980.000000pt" viewBox="0 0 980.000000 980.000000"
 preserveAspectRatio="xMidYMid meet">

<g transform="translate(0.000000,980.000000) scale(0.100000,-0.100000)"
fill="#000000" stroke="none">
<path d="M3645 8240 c-159 -34 -309 -99 -445 -195 -134 -95 -176 -145 -218
-258 l-22 -58 0 -1369 c0 -1231 2 -1370 16 -1384 28 -29 60 -18 149 50 386
295 743 346 1243 179 187 -63 310 -119 767 -350 488 -247 626 -305 845 -360
142 -36 220 -46 359 -46 254 0 462 69 684 229 100 72 142 118 180 201 26 55
31 79 32 140 l0 75 -72 49 c-152 103 -308 299 -698 873 -30 45 -35 136 -9 187
9 18 87 138 172 267 85 129 190 292 233 362 134 217 293 536 355 710 30 86 32
167 4 193 -27 25 -55 15 -136 -48 -198 -152 -371 -233 -578 -268 -97 -16 -336
-6 -457 20 -206 44 -433 134 -776 308 -607 308 -690 347 -876 412 -274 96
-542 125 -752 81z"/>
<path d="M2599 7881 l-39 -39 0 -3107 c0 -2858 1 -3109 16 -3135 23 -38 64
-60 114 -60 36 0 48 6 81 39 l39 39 0 3109 0 3110 -21 27 c-28 35 -70 56 -115
56 -29 0 -44 -8 -75 -39z"/>
</g>
</svg>
